<svg xmlns="http://www.w3.org/2000/svg" viewBox="0 0 32 32">
  <path fill="#ffffff" d="M16 3C9.372 3 4 8.373 4 15c0 2.47.752 4.766 2.04 6.676L4 29l7.542-1.98A11.94 11.94 0 0 0 16 27c6.628 0 12-5.373 12-12S22.628 3 16 3zm0 21.8c-2.01 0-3.878-.586-5.46-1.59l-.39-.24-4.474 1.174 1.19-4.36-.254-.4A9.77 9.77 0 1 1 16 24.8zm5.38-7.3c-.292-.146-1.73-.854-2-.95-.27-.098-.467-.146-.664.146-.195.292-.764.95-.937 1.145-.17.195-.34.22-.633.073-.292-.146-1.23-.453-2.345-1.44-.867-.772-1.45-1.724-1.62-2.016-.17-.292-.018-.45.128-.596.13-.13.292-.34.438-.51.146-.17.195-.292.292-.487.098-.195.05-.365-.024-.51-.073-.146-.664-1.6-.91-2.19-.24-.575-.486-.498-.664-.507h-.57c-.195 0-.51.073-.78.365-.27.292-1.026 1.002-1.026 2.443s1.05 2.833 1.196 3.028c.146.195 2.07 3.165 5.016 4.438.7.303 1.245.484 1.67.62.702.223 1.342.19 1.848.115.563-.084 1.73-.707 1.974-1.39.244-.683.244-1.27.17-1.39-.073-.12-.268-.195-.56-.34z"/>
</svg>
